<svg xmlns="http://www.w3.org/2000/svg" width="30" height="30" viewBox="0 0 30 30">
  <g id="headphones" transform="translate(-3 -3)">
    <path id="Path_241" data-name="Path 241" d="M4.5,27V18a13.5,13.5,0,1,1,27,0v9" fill="none" stroke="#4c526e" stroke-linecap="round" stroke-linejoin="round" stroke-width="3"/>
    <path id="Path_242" data-name="Path 242" d="M31.5,28.5a3,3,0,0,1-3,3H27a3,3,0,0,1-3-3V24a3,3,0,0,1,3-3h4.5Zm-27,0a3,3,0,0,0,3,3H9a3,3,0,0,0,3-3V24a3,3,0,0,0-3-3H4.5Z" fill="none" stroke="#4c526e" stroke-linecap="round" stroke-linejoin="round" stroke-width="3"/>
  </g>
</svg>
